<?xml version="1.0" encoding="UTF-8"?>
<!DOCTYPE svg PUBLIC "-//W3C//DTD SVG 1.0//EN" "http://www.w3.org/TR/2001/REC-SVG-20010904/DTD/svg10.dtd">
<!-- Creator: CorelDRAW 2021 (64 Bit) -->
<svg xmlns="http://www.w3.org/2000/svg" xml:space="preserve" width="143.425mm" height="33.8666mm" version="1.0" style="shape-rendering:geometricPrecision; text-rendering:geometricPrecision; image-rendering:optimizeQuality; fill-rule:evenodd; clip-rule:evenodd"
viewBox="0 0 14342.52 3386.66"
 xmlns:xlink="http://www.w3.org/1999/xlink"
 xmlns:xodm="http://www.corel.com/coreldraw/odm/2003">
 <defs>
  <style type="text/css">
   <![CDATA[
    .fil0 {fill:#FEFEFE;fill-rule:nonzero}
   ]]>
  </style>
   <clipPath id="id0">
    <rect x="-0.01" y="-12.7" width="14342.53" height="3412.06"/>
   </clipPath>
 </defs>
 <g id="Camada_x0020_1">
  <metadata id="CorelCorpID_0Corel-Layer"/>
  <g style="clip-path:url(#id0)">
   <image x="-0.01" y="-12.71" width="14342.53" height="3412.07" xlink:href="Thumbnail-Github_Images\Thumbnail-Github_ImgID1.png"/>
  </g>
  <g id="_2674861920192">
   <g>
    <path class="fil0" d="M12421.09 858.82c-472.49,0 -855.63,383.07 -855.63,855.63 0,378.04 245.16,698.77 585.13,811.91 42.77,7.92 58.47,-18.56 58.47,-41.16 0,-20.41 -0.8,-87.81 -1.17,-159.3 -238.03,51.75 -288.26,-100.96 -288.26,-100.96 -38.92,-98.9 -95.01,-125.19 -95.01,-125.19 -77.63,-53.11 5.86,-52.02 5.86,-52.02 85.92,6.04 131.16,88.17 131.16,88.17 76.31,130.81 200.16,93 248.99,71.13 7.68,-55.3 29.85,-93.04 54.32,-114.41 -190.05,-21.64 -389.83,-95 -389.83,-422.86 0,-93.41 33.43,-169.74 88.16,-229.66 -8.88,-21.55 -38.17,-108.58 8.29,-226.44 0,0 71.85,-22.99 235.36,87.71 68.25,-18.96 141.45,-28.47 214.16,-28.79 72.72,0.32 145.97,9.83 214.35,28.79 163.31,-110.7 235.06,-87.71 235.06,-87.71 46.57,117.86 17.27,204.89 8.39,226.44 54.86,59.92 88.06,136.25 88.06,229.66 0,328.63 -200.17,401 -390.7,422.18 30.7,26.55 58.04,78.62 58.04,158.45 0,114.48 -0.99,206.62 -0.99,234.81 0,22.76 15.4,49.45 58.77,41.04 339.79,-113.26 584.64,-433.88 584.64,-811.79 0,-472.56 -383.09,-855.63 -855.62,-855.63zm-535.17 1218.87c-1.88,4.24 -8.57,5.52 -14.66,2.6 -6.21,-2.79 -9.69,-8.59 -7.68,-12.85 1.84,-4.38 8.54,-5.6 14.73,-2.66 6.22,2.79 9.77,8.64 7.61,12.91zm42.09 37.55c-4.08,3.78 -12.06,2.02 -17.47,-3.96 -5.6,-5.96 -6.64,-13.94 -2.51,-17.78 4.21,-3.78 11.95,-2.01 17.56,3.96 5.59,6.03 6.69,13.95 2.42,17.78zm28.87 48.05c-5.24,3.64 -13.81,0.22 -19.11,-7.38 -5.24,-7.61 -5.24,-16.74 0.11,-20.39 5.32,-3.66 13.76,-0.37 19.13,7.18 5.23,7.74 5.23,16.86 -0.13,20.59zm48.84 55.65c-4.7,5.17 -14.68,3.78 -21.99,-3.28 -7.49,-6.9 -9.57,-16.69 -4.86,-21.86 4.74,-5.19 14.79,-3.73 22.15,3.27 7.43,6.89 9.7,16.75 4.7,21.87zm63.1 18.78c-2.06,6.7 -11.69,9.75 -21.38,6.9 -9.67,-2.93 -16.01,-10.78 -14.05,-17.55 2.01,-6.75 11.67,-9.92 21.44,-6.88 9.66,2.92 16.01,10.72 13.99,17.53zm71.83 7.97c0.24,7.06 -7.98,12.91 -18.15,13.04 -10.23,0.22 -18.51,-5.49 -18.62,-12.43 0,-7.13 8.03,-12.92 18.26,-13.09 10.18,-0.2 18.51,5.47 18.51,12.48zm70.56 -2.7c1.21,6.88 -5.86,13.95 -15.96,15.84 -9.93,1.81 -19.13,-2.44 -20.39,-9.27 -1.23,-7.06 5.96,-14.13 15.88,-15.96 10.12,-1.75 19.17,2.38 20.47,9.39z"/>
   </g>
  </g>
 </g>
</svg>
